<?xml version="1.0" encoding="utf-8"?>
<!-- Generator: Adobe Illustrator 24.2.1, SVG Export Plug-In . SVG Version: 6.00 Build 0)  -->
<svg version="1.1" id="svg2" xmlns="http://www.w3.org/2000/svg" xmlns:xlink="http://www.w3.org/1999/xlink" x="0px" y="0px"
	 viewBox="0 0 176.6 124.1" style="enable-background:new 0 0 176.6 124.1;" xml:space="preserve">
<style type="text/css">
	.st0{fill-rule:evenodd;clip-rule:evenodd;fill:#4C99AB;}
	.st1{fill-rule:evenodd;clip-rule:evenodd;fill:#F0F0F0;}
	.st2{fill-rule:evenodd;clip-rule:evenodd;fill:#26617D;}
	.st3{display:none;fill:#F0F0F0;}
</style>
<g id="g10">
	<g id="g12">
		<path id="path14" class="st0" d="M176.6,84.3h-100l-9.4,16.4h99.9L176.6,84.3 M132.9,124.1H53.7l9.4-16.4h79.2L132.9,124.1"/>
		<path id="path16" class="st1" d="M46.1,124l36.6-63.3l-9.5-16.3L27.3,124H46.1 M0,124L59.7,20.9l9.5,16.3l-50,86.7H0"/>
		<path id="path18" class="st2" d="M55.3,0.1l44.8,77.6h18.9L74.1,0L55.3,0.1 M106,8.2l40,69.4l-18.9,0.1l-40-69.4L106,8.2"/>
	</g>
</g>
<path class="st3" d="M202.8,92.3c10.1,10,23.8,15.6,38,15.5c21.5,0,28.4-10.4,28.4-18.8c0-13.1-14.6-16.7-30.6-20.6
	c-19.4-4.6-40.9-9.5-40.9-30.9c0-18,17.7-30.2,41.4-30.2c18.4,0,32.7,5.5,42.9,15.2l-9,10c-9-9-21.7-13.1-34.9-13.1
	c-14.5,0-24.8,7-24.8,17.3c0,10.9,13.9,14.2,29.3,18c19.7,4.7,42.1,10.3,42.1,33.2c0,15.8-11.9,32-44.5,32c-21,0-36.3-7.2-46.3-17.3
	L202.8,92.3z"/>
<polygon class="st3" points="297.4,9 314.5,9 355.2,103.1 395.9,9 413.1,9 364.5,117.9 345.8,117.9 "/>
<rect x="431.5" y="9" class="st3" width="15" height="108.9"/>
</svg>
