<svg id="svg2" xmlns="http://www.w3.org/2000/svg" viewBox="0 0 446.54 124.07"><defs><style>.cls-1{fill:#4c99ab;}.cls-1,.cls-2,.cls-3{fill-rule:evenodd;}.cls-2,.cls-4{fill:#f0f0f0;}.cls-3{fill:#26617d;}</style></defs><g id="g10"><g id="g12"><path id="path14" class="cls-1" d="M210,114.65H110l-9.4,16.4h99.94l9.4-16.4m-43.67,39.8H87.11l9.4-16.4h79.2l-9.4,16.4" transform="translate(-33.38 -30.39)"/><path id="path16" class="cls-2" d="M79.51,154.39l36.6-63.34-9.47-16.33L60.71,154.39h18.8m-46.13,0L93.11,51.32l9.47,16.33-50,86.74H33.38" transform="translate(-33.38 -30.39)"/><path id="path18" class="cls-3" d="M88.64,30.45,133.45,108h18.86l-44.8-77.59-18.87.06m50.74,8.14,40,69.39-18.87.07-40-69.4,18.87-.06" transform="translate(-33.38 -30.39)"/></g></g><path class="cls-4" d="M236.17,122.69a53.4,53.4,0,0,0,38,15.51c21.52,0,28.39-10.45,28.39-18.78,0-13.06-14.65-16.66-30.56-20.58-19.35-4.57-40.87-9.47-40.87-30.86,0-18,17.72-30.22,41.41-30.22,18.44,0,32.73,5.55,42.86,15.19l-9.05,10c-9-9-21.7-13.06-34.9-13.06-14.46,0-24.77,7-24.77,17.31,0,10.94,13.92,14.21,29.29,18,19.72,4.74,42.14,10.29,42.14,33.16,0,15.84-11.94,32-44.49,32-21,0-36.34-7.19-46.29-17.31Z" transform="translate(-33.38 -30.39)"/><polygon class="cls-4" points="297.36 9.01 314.54 9.01 355.23 103.08 395.91 9.01 413.09 9.01 364.45 117.94 345.82 117.94 297.36 9.01"/><rect class="cls-4" x="431.53" y="9.01" width="15.01" height="108.93"/></svg>